<mxfile host="app.diagrams.net" agent="Mozilla/5.0 (Windows NT 10.0; Win64; x64) AppleWebKit/537.36 (KHTML, like Gecko) Chrome/131.0.0.0 Safari/537.36" version="25.0.1">
  <diagram id="azure-architecture" name="Azure Conference System Architecture">
    <mxGraphModel dx="1793" dy="1792" grid="1" gridSize="10" guides="1" tooltips="1" connect="1" arrows="1" fold="1" page="1" pageScale="1" pageWidth="1169" pageHeight="827" math="0" shadow="0">
      <root>
        <mxCell id="0" />
        <mxCell id="1" parent="0" />
        <mxCell id="JNAILvhhKDJsEu1cFrxP-17" style="edgeStyle=orthogonalEdgeStyle;rounded=0;orthogonalLoop=1;jettySize=auto;html=1;" edge="1" parent="1" source="clients_zone" target="security_zone">
          <mxGeometry relative="1" as="geometry" />
        </mxCell>
        <mxCell id="clients_zone" value="Client Zone" style="swimlane;fillColor=#dae8fc;strokeColor=#6c8ebf;fontStyle=1" parent="1" vertex="1">
          <mxGeometry x="510" y="-170" width="200" height="160" as="geometry" />
        </mxCell>
        <mxCell id="web_app" value="Web Application&#xa;(Angular SPA)" style="aspect=fixed;html=1;points=[];align=center;image;fontSize=12;image=img/lib/azure2/app_services/App_Services.svg;" parent="clients_zone" vertex="1">
          <mxGeometry x="20" y="40" width="64" height="64" as="geometry" />
        </mxCell>
        <mxCell id="mobile_app" value="Mobile Apps&#xa;(React Native)" style="aspect=fixed;html=1;points=[];align=center;image;fontSize=12;image=img/lib/azure2/mobile/Mobile_Engagement.svg;" parent="clients_zone" vertex="1">
          <mxGeometry x="120" y="40" width="64" height="64" as="geometry" />
        </mxCell>
        <mxCell id="JNAILvhhKDJsEu1cFrxP-13" style="edgeStyle=orthogonalEdgeStyle;rounded=0;orthogonalLoop=1;jettySize=auto;html=1;" edge="1" parent="1" source="security_zone" target="aks_zone">
          <mxGeometry relative="1" as="geometry" />
        </mxCell>
        <mxCell id="security_zone" value="Security &amp; Gateway" style="swimlane;fillColor=#f8cecc;strokeColor=#b85450;fontStyle=1" parent="1" vertex="1">
          <mxGeometry x="510" y="50" width="200" height="160" as="geometry" />
        </mxCell>
        <mxCell id="aad_b2c" value="Azure AD B2C" style="aspect=fixed;html=1;points=[];align=center;image;fontSize=12;image=img/lib/azure2/identity/Azure_AD_B2C.svg;" parent="security_zone" vertex="1">
          <mxGeometry x="20" y="40" width="64" height="64" as="geometry" />
        </mxCell>
        <mxCell id="api_mgmt" value="API Management" style="aspect=fixed;html=1;points=[];align=center;image;fontSize=12;image=img/lib/azure2/app_services/API_Management_Services.svg;" parent="security_zone" vertex="1">
          <mxGeometry x="120" y="40" width="64" height="64" as="geometry" />
        </mxCell>
        <mxCell id="JNAILvhhKDJsEu1cFrxP-6" style="edgeStyle=orthogonalEdgeStyle;rounded=0;orthogonalLoop=1;jettySize=auto;html=1;" edge="1" parent="1" source="aks_zone" target="cdn">
          <mxGeometry relative="1" as="geometry" />
        </mxCell>
        <mxCell id="JNAILvhhKDJsEu1cFrxP-7" style="edgeStyle=orthogonalEdgeStyle;rounded=0;orthogonalLoop=1;jettySize=auto;html=1;exitX=1;exitY=0.75;exitDx=0;exitDy=0;" edge="1" parent="1" source="aks_zone">
          <mxGeometry relative="1" as="geometry">
            <mxPoint x="1070" y="430.81818181818153" as="targetPoint" />
          </mxGeometry>
        </mxCell>
        <mxCell id="JNAILvhhKDJsEu1cFrxP-12" style="edgeStyle=orthogonalEdgeStyle;rounded=0;orthogonalLoop=1;jettySize=auto;html=1;" edge="1" parent="1" source="aks_zone" target="event_zone">
          <mxGeometry relative="1" as="geometry">
            <Array as="points">
              <mxPoint x="610" y="520" />
              <mxPoint x="780" y="520" />
            </Array>
          </mxGeometry>
        </mxCell>
        <mxCell id="JNAILvhhKDJsEu1cFrxP-19" style="edgeStyle=orthogonalEdgeStyle;rounded=0;orthogonalLoop=1;jettySize=auto;html=1;" edge="1" parent="1" source="aks_zone" target="storage_zone">
          <mxGeometry relative="1" as="geometry" />
        </mxCell>
        <mxCell id="aks_zone" value="Azure Kubernetes Service (AKS)" style="swimlane;fillColor=#d5e8d4;strokeColor=#82b366;fontStyle=1" parent="1" vertex="1">
          <mxGeometry x="390" y="280" width="440" height="200" as="geometry" />
        </mxCell>
        <mxCell id="aks_cluster" value="AKS Cluster" style="aspect=fixed;html=1;points=[];align=center;image;fontSize=12;image=img/lib/azure2/containers/Kubernetes_Services.svg;" parent="aks_zone" vertex="1">
          <mxGeometry x="20" y="40" width="68" height="60" as="geometry" />
        </mxCell>
        <mxCell id="conference_svc" value="Conference Service" style="aspect=fixed;html=1;points=[];align=center;image;fontSize=12;image=img/lib/azure2/containers/Container_Instances.svg;" parent="aks_zone" vertex="1">
          <mxGeometry x="120" y="40" width="64" height="64" as="geometry" />
        </mxCell>
        <mxCell id="session_svc" value="Session Service" style="aspect=fixed;html=1;points=[];align=center;image;fontSize=12;image=img/lib/azure2/containers/Container_Instances.svg;" parent="aks_zone" vertex="1">
          <mxGeometry x="220" y="40" width="64" height="64" as="geometry" />
        </mxCell>
        <mxCell id="voting_svc" value="Voting Service" style="aspect=fixed;html=1;points=[];align=center;image;fontSize=12;image=img/lib/azure2/containers/Container_Instances.svg;" parent="aks_zone" vertex="1">
          <mxGeometry x="320" y="40" width="64" height="64" as="geometry" />
        </mxCell>
        <mxCell id="JNAILvhhKDJsEu1cFrxP-8" style="edgeStyle=orthogonalEdgeStyle;rounded=0;orthogonalLoop=1;jettySize=auto;html=1;" edge="1" parent="1" source="event_zone">
          <mxGeometry relative="1" as="geometry">
            <mxPoint x="1070" y="610" as="targetPoint" />
          </mxGeometry>
        </mxCell>
        <mxCell id="event_zone" value="Event Processing" style="swimlane;fillColor=#e1d5e7;strokeColor=#9673a6;fontStyle=1" parent="1" vertex="1">
          <mxGeometry x="560" y="550" width="440" height="160" as="geometry" />
        </mxCell>
        <mxCell id="event_grid" value="Event Grid" style="aspect=fixed;html=1;points=[];align=center;image;fontSize=12;image=img/lib/azure2/integration/Event_Grid_Domains.svg;" parent="event_zone" vertex="1">
          <mxGeometry x="20" y="40" width="64" height="64" as="geometry" />
        </mxCell>
        <mxCell id="service_bus" value="Service Bus" style="aspect=fixed;html=1;points=[];align=center;image;fontSize=12;image=img/lib/azure2/integration/Service_Bus.svg;" parent="event_zone" vertex="1">
          <mxGeometry x="120" y="40" width="64" height="64" as="geometry" />
        </mxCell>
        <mxCell id="functions" value="Azure Functions" style="aspect=fixed;html=1;points=[];align=center;image;fontSize=12;image=img/lib/azure2/compute/Function_Apps.svg;" parent="event_zone" vertex="1">
          <mxGeometry x="220" y="40" width="64" height="64" as="geometry" />
        </mxCell>
        <mxCell id="JNAILvhhKDJsEu1cFrxP-9" style="edgeStyle=orthogonalEdgeStyle;rounded=0;orthogonalLoop=1;jettySize=auto;html=1;entryX=0.5;entryY=1;entryDx=0;entryDy=0;" edge="1" parent="1" source="storage_zone" target="monitoring_zone">
          <mxGeometry relative="1" as="geometry">
            <Array as="points">
              <mxPoint x="1170" y="760" />
            </Array>
          </mxGeometry>
        </mxCell>
        <mxCell id="storage_zone" value="Data Layer" style="swimlane;fillColor=#fff2cc;strokeColor=#d6b656;fontStyle=1" parent="1" vertex="1">
          <mxGeometry x="280" y="560" width="200" height="270" as="geometry" />
        </mxCell>
        <mxCell id="sql_db" value="Azure SQL DB" style="aspect=fixed;html=1;points=[];align=center;image;fontSize=12;image=img/lib/azure2/databases/SQL_Database.svg;" parent="storage_zone" vertex="1">
          <mxGeometry x="20" y="40" width="64" height="64" as="geometry" />
        </mxCell>
        <mxCell id="cosmos_db" value="Cosmos DB" style="aspect=fixed;html=1;points=[];align=center;image;fontSize=12;image=img/lib/azure2/databases/Azure_Cosmos_DB.svg;" parent="storage_zone" vertex="1">
          <mxGeometry x="120" y="40" width="64" height="64" as="geometry" />
        </mxCell>
        <mxCell id="blob_storage" value="Blob Storage" style="aspect=fixed;html=1;points=[];align=center;image;fontSize=12;image=img/lib/azure2/storage/Storage_Accounts.svg;" parent="storage_zone" vertex="1">
          <mxGeometry x="20" y="140" width="64" height="64" as="geometry" />
        </mxCell>
        <mxCell id="redis" value="Azure Cache&#xa;for Redis" style="aspect=fixed;html=1;points=[];align=center;image;fontSize=12;image=img/lib/azure2/databases/Cache_Redis.svg;" parent="storage_zone" vertex="1">
          <mxGeometry x="120" y="140" width="64" height="64" as="geometry" />
        </mxCell>
        <mxCell id="monitoring_zone" value="Monitoring &amp; Analytics" style="swimlane;fillColor=#f5f5f5;strokeColor=#666666;fontStyle=1" parent="1" vertex="1">
          <mxGeometry x="1070" y="280" width="200" height="400" as="geometry" />
        </mxCell>
        <mxCell id="app_insights" value="Application&#xa;Insights" style="aspect=fixed;html=1;points=[];align=center;image;fontSize=12;image=img/lib/azure2/devops/Application_Insights.svg;" parent="monitoring_zone" vertex="1">
          <mxGeometry x="20" y="40" width="64" height="64" as="geometry" />
        </mxCell>
        <mxCell id="log_analytics" value="Log Analytics" style="aspect=fixed;html=1;points=[];align=center;image;fontSize=12;image=img/lib/azure2/analytics/Log_Analytics_Workspaces.svg;" parent="monitoring_zone" vertex="1">
          <mxGeometry x="120" y="40" width="64" height="64" as="geometry" />
        </mxCell>
        <mxCell id="azure_monitor" value="Azure Monitor" style="aspect=fixed;html=1;points=[];align=center;image;fontSize=12;image=img/lib/azure2/management_governance/Monitor.svg;" parent="monitoring_zone" vertex="1">
          <mxGeometry x="70" y="140" width="64" height="64" as="geometry" />
        </mxCell>
        <mxCell id="JNAILvhhKDJsEu1cFrxP-16" style="edgeStyle=orthogonalEdgeStyle;rounded=0;orthogonalLoop=1;jettySize=auto;html=1;entryX=1;entryY=0.5;entryDx=0;entryDy=0;" edge="1" parent="1" source="cdn" target="clients_zone">
          <mxGeometry relative="1" as="geometry" />
        </mxCell>
        <mxCell id="cdn" value="Azure CDN" style="aspect=fixed;html=1;points=[];align=center;image;fontSize=12;image=img/lib/azure2/app_services/CDN_Profiles.svg;" parent="1" vertex="1">
          <mxGeometry x="990" width="68" height="60" as="geometry" />
        </mxCell>
      </root>
    </mxGraphModel>
  </diagram>
</mxfile>
